<mxfile host="app.diagrams.net" agent="Mozilla/5.0 (X11; Linux x86_64) AppleWebKit/537.36 (KHTML, like Gecko) Chrome/130.0.0.0 Safari/537.36" version="24.9.0">
  <diagram name="Page-1" id="0aAk-z0tk7KYYavFr2LK">
    <mxGraphModel dx="2074" dy="1114" grid="1" gridSize="10" guides="1" tooltips="1" connect="1" arrows="1" fold="1" page="1" pageScale="1" pageWidth="1100" pageHeight="850" math="0" shadow="0">
      <root>
        <mxCell id="0" />
        <mxCell id="1" parent="0" />
        <mxCell id="PZESjGKclU4C-1-lUbuo-1" value="Application" style="rounded=0;whiteSpace=wrap;html=1;fontStyle=1;fillColor=#ffe6cc;strokeColor=#d79b00;" parent="1" vertex="1">
          <mxGeometry x="290" y="215" width="120" height="60" as="geometry" />
        </mxCell>
        <mxCell id="PZESjGKclU4C-1-lUbuo-2" value="Application" style="rounded=0;whiteSpace=wrap;html=1;fontStyle=1;fillColor=#ffe6cc;strokeColor=#d79b00;" parent="1" vertex="1">
          <mxGeometry x="290" y="315" width="120" height="60" as="geometry" />
        </mxCell>
        <mxCell id="PZESjGKclU4C-1-lUbuo-3" value="Application" style="rounded=0;whiteSpace=wrap;html=1;fontStyle=1;fillColor=#ffe6cc;strokeColor=#d79b00;" parent="1" vertex="1">
          <mxGeometry x="290" y="415" width="120" height="60" as="geometry" />
        </mxCell>
        <mxCell id="PZESjGKclU4C-1-lUbuo-4" value="Application" style="rounded=0;whiteSpace=wrap;html=1;fontStyle=1;fillColor=#ffe6cc;strokeColor=#d79b00;" parent="1" vertex="1">
          <mxGeometry x="290" y="505" width="120" height="60" as="geometry" />
        </mxCell>
        <mxCell id="PZESjGKclU4C-1-lUbuo-5" value="AI Gateway" style="swimlane;whiteSpace=wrap;html=1;fontStyle=7;fillColor=#f5f5f5;fontColor=#333333;strokeColor=#666666;" parent="1" vertex="1">
          <mxGeometry x="540" y="100" width="200" height="540" as="geometry" />
        </mxCell>
        <mxCell id="PZESjGKclU4C-1-lUbuo-12" value="Cache" style="shape=cylinder3;whiteSpace=wrap;html=1;boundedLbl=1;backgroundOutline=1;size=15;fontStyle=1;fillColor=#e1d5e7;strokeColor=#9673a6;" parent="PZESjGKclU4C-1-lUbuo-5" vertex="1">
          <mxGeometry x="70" y="340" width="60" height="80" as="geometry" />
        </mxCell>
        <mxCell id="PZESjGKclU4C-1-lUbuo-14" value="Guardrails" style="shape=cube;whiteSpace=wrap;html=1;boundedLbl=1;backgroundOutline=1;darkOpacity=0.05;darkOpacity2=0.1;fontStyle=1;fillColor=#e1d5e7;strokeColor=#9673a6;" parent="PZESjGKclU4C-1-lUbuo-5" vertex="1">
          <mxGeometry x="40" y="40" width="120" height="80" as="geometry" />
        </mxCell>
        <mxCell id="PZESjGKclU4C-1-lUbuo-15" value="Inference&lt;div&gt;Proxy&lt;/div&gt;" style="shape=hexagon;perimeter=hexagonPerimeter2;whiteSpace=wrap;html=1;fixedSize=1;fontStyle=1;fillColor=#e1d5e7;strokeColor=#9673a6;" parent="PZESjGKclU4C-1-lUbuo-5" vertex="1">
          <mxGeometry x="40" y="230" width="120" height="80" as="geometry" />
        </mxCell>
        <mxCell id="PZESjGKclU4C-1-lUbuo-13" value="Logging" style="shape=cube;whiteSpace=wrap;html=1;boundedLbl=1;backgroundOutline=1;darkOpacity=0.05;darkOpacity2=0.1;fontStyle=1;fillColor=#e1d5e7;strokeColor=#9673a6;" parent="PZESjGKclU4C-1-lUbuo-5" vertex="1">
          <mxGeometry x="40" y="440" width="120" height="80" as="geometry" />
        </mxCell>
        <mxCell id="PZESjGKclU4C-1-lUbuo-11" value="Keystore" style="shape=cylinder3;whiteSpace=wrap;html=1;boundedLbl=1;backgroundOutline=1;size=15;fontStyle=1;fillColor=#e1d5e7;strokeColor=#9673a6;" parent="PZESjGKclU4C-1-lUbuo-5" vertex="1">
          <mxGeometry x="70" y="130" width="60" height="80" as="geometry" />
        </mxCell>
        <mxCell id="PZESjGKclU4C-1-lUbuo-6" value="" style="endArrow=classic;startArrow=classic;html=1;rounded=0;exitX=1;exitY=0.5;exitDx=0;exitDy=0;entryX=0;entryY=0.5;entryDx=0;entryDy=0;" parent="1" source="PZESjGKclU4C-1-lUbuo-4" target="PZESjGKclU4C-1-lUbuo-5" edge="1">
          <mxGeometry width="50" height="50" relative="1" as="geometry">
            <mxPoint x="520" y="590" as="sourcePoint" />
            <mxPoint x="570" y="540" as="targetPoint" />
          </mxGeometry>
        </mxCell>
        <mxCell id="PZESjGKclU4C-1-lUbuo-7" value="" style="endArrow=classic;startArrow=classic;html=1;rounded=0;exitX=1;exitY=0.5;exitDx=0;exitDy=0;entryX=0;entryY=0.5;entryDx=0;entryDy=0;" parent="1" source="PZESjGKclU4C-1-lUbuo-3" target="PZESjGKclU4C-1-lUbuo-5" edge="1">
          <mxGeometry width="50" height="50" relative="1" as="geometry">
            <mxPoint x="520" y="590" as="sourcePoint" />
            <mxPoint x="570" y="540" as="targetPoint" />
          </mxGeometry>
        </mxCell>
        <mxCell id="PZESjGKclU4C-1-lUbuo-8" value="" style="endArrow=classic;startArrow=classic;html=1;rounded=0;exitX=1;exitY=0.5;exitDx=0;exitDy=0;entryX=0;entryY=0.5;entryDx=0;entryDy=0;" parent="1" source="PZESjGKclU4C-1-lUbuo-2" target="PZESjGKclU4C-1-lUbuo-5" edge="1">
          <mxGeometry width="50" height="50" relative="1" as="geometry">
            <mxPoint x="420" y="455" as="sourcePoint" />
            <mxPoint x="530" y="390" as="targetPoint" />
          </mxGeometry>
        </mxCell>
        <mxCell id="PZESjGKclU4C-1-lUbuo-9" value="" style="endArrow=classic;startArrow=classic;html=1;rounded=0;exitX=1;exitY=0.5;exitDx=0;exitDy=0;entryX=0;entryY=0.5;entryDx=0;entryDy=0;" parent="1" source="PZESjGKclU4C-1-lUbuo-1" target="PZESjGKclU4C-1-lUbuo-5" edge="1">
          <mxGeometry width="50" height="50" relative="1" as="geometry">
            <mxPoint x="430" y="465" as="sourcePoint" />
            <mxPoint x="530" y="370" as="targetPoint" />
          </mxGeometry>
        </mxCell>
        <mxCell id="PZESjGKclU4C-1-lUbuo-10" value="API CALLS" style="text;html=1;align=center;verticalAlign=middle;whiteSpace=wrap;rounded=0;fontStyle=3" parent="1" vertex="1">
          <mxGeometry x="450" y="163" width="60" height="30" as="geometry" />
        </mxCell>
        <mxCell id="PZESjGKclU4C-1-lUbuo-17" value="Users" style="ellipse;shape=cloud;whiteSpace=wrap;html=1;fontStyle=1;fillColor=#dae8fc;strokeColor=#6c8ebf;" parent="1" vertex="1">
          <mxGeometry y="295" width="220" height="180" as="geometry" />
        </mxCell>
        <mxCell id="PZESjGKclU4C-1-lUbuo-18" value="" style="endArrow=classic;startArrow=classic;html=1;rounded=0;exitX=0.875;exitY=0.5;exitDx=0;exitDy=0;exitPerimeter=0;entryX=0;entryY=0.5;entryDx=0;entryDy=0;" parent="1" source="PZESjGKclU4C-1-lUbuo-17" target="PZESjGKclU4C-1-lUbuo-2" edge="1">
          <mxGeometry width="50" height="50" relative="1" as="geometry">
            <mxPoint x="520" y="590" as="sourcePoint" />
            <mxPoint x="570" y="540" as="targetPoint" />
          </mxGeometry>
        </mxCell>
        <mxCell id="PZESjGKclU4C-1-lUbuo-20" value="" style="endArrow=classic;startArrow=classic;html=1;rounded=0;exitX=0.875;exitY=0.5;exitDx=0;exitDy=0;exitPerimeter=0;entryX=0;entryY=0.5;entryDx=0;entryDy=0;" parent="1" source="PZESjGKclU4C-1-lUbuo-17" target="PZESjGKclU4C-1-lUbuo-1" edge="1">
          <mxGeometry width="50" height="50" relative="1" as="geometry">
            <mxPoint x="520" y="590" as="sourcePoint" />
            <mxPoint x="570" y="540" as="targetPoint" />
          </mxGeometry>
        </mxCell>
        <mxCell id="PZESjGKclU4C-1-lUbuo-21" value="USER&lt;br&gt;INTERFACES" style="text;html=1;align=center;verticalAlign=middle;whiteSpace=wrap;rounded=0;fontStyle=3" parent="1" vertex="1">
          <mxGeometry x="216" y="163" width="60" height="30" as="geometry" />
        </mxCell>
        <mxCell id="PZESjGKclU4C-1-lUbuo-22" value="" style="endArrow=classic;startArrow=classic;html=1;rounded=0;exitX=0.875;exitY=0.5;exitDx=0;exitDy=0;exitPerimeter=0;entryX=0;entryY=0.5;entryDx=0;entryDy=0;" parent="1" source="PZESjGKclU4C-1-lUbuo-17" target="PZESjGKclU4C-1-lUbuo-3" edge="1">
          <mxGeometry width="50" height="50" relative="1" as="geometry">
            <mxPoint x="520" y="590" as="sourcePoint" />
            <mxPoint x="570" y="540" as="targetPoint" />
          </mxGeometry>
        </mxCell>
        <mxCell id="PZESjGKclU4C-1-lUbuo-23" value="" style="endArrow=classic;startArrow=classic;html=1;rounded=0;exitX=0.875;exitY=0.5;exitDx=0;exitDy=0;exitPerimeter=0;entryX=0;entryY=0.5;entryDx=0;entryDy=0;" parent="1" source="PZESjGKclU4C-1-lUbuo-17" target="PZESjGKclU4C-1-lUbuo-4" edge="1">
          <mxGeometry width="50" height="50" relative="1" as="geometry">
            <mxPoint x="520" y="590" as="sourcePoint" />
            <mxPoint x="570" y="540" as="targetPoint" />
          </mxGeometry>
        </mxCell>
        <mxCell id="PZESjGKclU4C-1-lUbuo-24" value="Inference&lt;div&gt;Endpoint&lt;/div&gt;" style="ellipse;whiteSpace=wrap;html=1;fontStyle=1;fillColor=#d5e8d4;strokeColor=#82b366;" parent="1" vertex="1">
          <mxGeometry x="840" y="200" width="120" height="80" as="geometry" />
        </mxCell>
        <mxCell id="PZESjGKclU4C-1-lUbuo-25" value="Inference&lt;br&gt;&lt;div&gt;Endpoint&lt;/div&gt;" style="ellipse;whiteSpace=wrap;html=1;fontStyle=1;fillColor=#d5e8d4;strokeColor=#82b366;" parent="1" vertex="1">
          <mxGeometry x="840" y="330" width="120" height="80" as="geometry" />
        </mxCell>
        <mxCell id="PZESjGKclU4C-1-lUbuo-26" value="Inference&lt;br&gt;&lt;div&gt;Endpoint&lt;/div&gt;" style="ellipse;whiteSpace=wrap;html=1;fontStyle=1;fillColor=#d5e8d4;strokeColor=#82b366;" parent="1" vertex="1">
          <mxGeometry x="840" y="460" width="120" height="80" as="geometry" />
        </mxCell>
        <mxCell id="PZESjGKclU4C-1-lUbuo-27" value="API CALLS" style="text;html=1;align=center;verticalAlign=middle;whiteSpace=wrap;rounded=0;fontStyle=3" parent="1" vertex="1">
          <mxGeometry x="770" y="163" width="60" height="30" as="geometry" />
        </mxCell>
        <mxCell id="PZESjGKclU4C-1-lUbuo-28" value="" style="endArrow=classic;startArrow=classic;html=1;rounded=0;exitX=1;exitY=0.5;exitDx=0;exitDy=0;entryX=0;entryY=0.5;entryDx=0;entryDy=0;" parent="1" source="PZESjGKclU4C-1-lUbuo-5" target="PZESjGKclU4C-1-lUbuo-24" edge="1">
          <mxGeometry width="50" height="50" relative="1" as="geometry">
            <mxPoint x="520" y="590" as="sourcePoint" />
            <mxPoint x="570" y="540" as="targetPoint" />
          </mxGeometry>
        </mxCell>
        <mxCell id="PZESjGKclU4C-1-lUbuo-29" value="" style="endArrow=classic;startArrow=classic;html=1;rounded=0;entryX=0;entryY=0.5;entryDx=0;entryDy=0;exitX=1;exitY=0.5;exitDx=0;exitDy=0;" parent="1" source="PZESjGKclU4C-1-lUbuo-5" target="PZESjGKclU4C-1-lUbuo-25" edge="1">
          <mxGeometry width="50" height="50" relative="1" as="geometry">
            <mxPoint x="520" y="590" as="sourcePoint" />
            <mxPoint x="570" y="540" as="targetPoint" />
          </mxGeometry>
        </mxCell>
        <mxCell id="PZESjGKclU4C-1-lUbuo-31" value="" style="endArrow=classic;startArrow=classic;html=1;rounded=0;entryX=0;entryY=0.5;entryDx=0;entryDy=0;exitX=1;exitY=0.5;exitDx=0;exitDy=0;" parent="1" source="PZESjGKclU4C-1-lUbuo-5" target="PZESjGKclU4C-1-lUbuo-26" edge="1">
          <mxGeometry width="50" height="50" relative="1" as="geometry">
            <mxPoint x="520" y="590" as="sourcePoint" />
            <mxPoint x="570" y="540" as="targetPoint" />
          </mxGeometry>
        </mxCell>
        <mxCell id="PZESjGKclU4C-1-lUbuo-32" value="Observability" style="ellipse;shape=cloud;whiteSpace=wrap;html=1;fontStyle=1;fillColor=#fff2cc;strokeColor=#d6b656;" parent="1" vertex="1">
          <mxGeometry x="550" y="680" width="180" height="140" as="geometry" />
        </mxCell>
        <mxCell id="PZESjGKclU4C-1-lUbuo-33" value="" style="endArrow=classic;html=1;rounded=0;entryX=0.625;entryY=0.2;entryDx=0;entryDy=0;entryPerimeter=0;exitX=0;exitY=0;exitDx=70;exitDy=80;exitPerimeter=0;" parent="1" source="PZESjGKclU4C-1-lUbuo-13" target="PZESjGKclU4C-1-lUbuo-32" edge="1">
          <mxGeometry width="50" height="50" relative="1" as="geometry">
            <mxPoint x="520" y="590" as="sourcePoint" />
            <mxPoint x="570" y="540" as="targetPoint" />
          </mxGeometry>
        </mxCell>
        <mxCell id="PZESjGKclU4C-1-lUbuo-34" value="API CALLS" style="text;html=1;align=center;verticalAlign=middle;whiteSpace=wrap;rounded=0;fontStyle=3" parent="1" vertex="1">
          <mxGeometry x="525" y="650" width="60" height="30" as="geometry" />
        </mxCell>
        <mxCell id="PZESjGKclU4C-1-lUbuo-35" value="Log&lt;div&gt;Storage&lt;/div&gt;" style="shape=cylinder3;whiteSpace=wrap;html=1;boundedLbl=1;backgroundOutline=1;size=15;fontStyle=1;fillColor=#fff2cc;strokeColor=#d6b656;" parent="1" vertex="1">
          <mxGeometry x="780" y="680" width="60" height="80" as="geometry" />
        </mxCell>
        <mxCell id="PZESjGKclU4C-1-lUbuo-36" value="" style="endArrow=classic;html=1;rounded=0;entryX=0;entryY=0.5;entryDx=0;entryDy=0;entryPerimeter=0;exitX=0;exitY=0;exitDx=70;exitDy=80;exitPerimeter=0;" parent="1" source="PZESjGKclU4C-1-lUbuo-13" target="PZESjGKclU4C-1-lUbuo-35" edge="1">
          <mxGeometry width="50" height="50" relative="1" as="geometry">
            <mxPoint x="520" y="590" as="sourcePoint" />
            <mxPoint x="570" y="540" as="targetPoint" />
          </mxGeometry>
        </mxCell>
        <mxCell id="8K5tmWM-PZiiqU3aonHg-1" value="&lt;b&gt;Prompt&lt;/b&gt;&lt;div&gt;&lt;b&gt;Injection&lt;/b&gt;&lt;/div&gt;&lt;div&gt;&lt;b&gt;Mitigation&lt;/b&gt;&lt;/div&gt;" style="shape=hexagon;perimeter=hexagonPerimeter2;whiteSpace=wrap;html=1;fixedSize=1;fillColor=#f8cecc;strokeColor=#b85450;" vertex="1" parent="1">
          <mxGeometry x="580" y="10" width="110" height="70" as="geometry" />
        </mxCell>
        <mxCell id="8K5tmWM-PZiiqU3aonHg-2" value="&lt;b&gt;Factuality&lt;/b&gt;&lt;div&gt;&lt;b&gt;Testing&lt;/b&gt;&lt;/div&gt;" style="shape=hexagon;perimeter=hexagonPerimeter2;whiteSpace=wrap;html=1;fixedSize=1;fillColor=#f8cecc;strokeColor=#b85450;" vertex="1" parent="1">
          <mxGeometry x="710" y="10" width="110" height="70" as="geometry" />
        </mxCell>
        <mxCell id="8K5tmWM-PZiiqU3aonHg-3" value="&lt;b&gt;Trusted&lt;/b&gt;&lt;div&gt;&lt;b&gt;Models&lt;/b&gt;&lt;/div&gt;" style="shape=hexagon;perimeter=hexagonPerimeter2;whiteSpace=wrap;html=1;fixedSize=1;fillColor=#f8cecc;strokeColor=#b85450;" vertex="1" parent="1">
          <mxGeometry x="450" y="10" width="110" height="70" as="geometry" />
        </mxCell>
        <mxCell id="8K5tmWM-PZiiqU3aonHg-4" value="&lt;b&gt;Offensive&lt;/b&gt;&lt;div&gt;&lt;b&gt;Response&lt;/b&gt;&lt;/div&gt;&lt;div&gt;&lt;b&gt;Mitigation&lt;/b&gt;&lt;/div&gt;" style="shape=hexagon;perimeter=hexagonPerimeter2;whiteSpace=wrap;html=1;fixedSize=1;fillColor=#f8cecc;strokeColor=#b85450;" vertex="1" parent="1">
          <mxGeometry x="320" y="10" width="110" height="70" as="geometry" />
        </mxCell>
        <mxCell id="8K5tmWM-PZiiqU3aonHg-5" value="&lt;b&gt;Personal&lt;/b&gt;&lt;div&gt;&lt;b&gt;Information&lt;/b&gt;&lt;/div&gt;&lt;div&gt;&lt;b&gt;Exposure&lt;/b&gt;&lt;/div&gt;&lt;div&gt;&lt;b&gt;Mitigation&lt;/b&gt;&lt;/div&gt;" style="shape=hexagon;perimeter=hexagonPerimeter2;whiteSpace=wrap;html=1;fixedSize=1;fillColor=#f8cecc;strokeColor=#b85450;" vertex="1" parent="1">
          <mxGeometry x="840" y="10" width="110" height="70" as="geometry" />
        </mxCell>
        <mxCell id="8K5tmWM-PZiiqU3aonHg-6" value="" style="endArrow=classic;startArrow=classic;html=1;rounded=0;exitX=0.5;exitY=1;exitDx=0;exitDy=0;entryX=0;entryY=0;entryDx=0;entryDy=30;entryPerimeter=0;" edge="1" parent="1" source="8K5tmWM-PZiiqU3aonHg-4" target="PZESjGKclU4C-1-lUbuo-14">
          <mxGeometry width="50" height="50" relative="1" as="geometry">
            <mxPoint x="520" y="590" as="sourcePoint" />
            <mxPoint x="570" y="540" as="targetPoint" />
          </mxGeometry>
        </mxCell>
        <mxCell id="8K5tmWM-PZiiqU3aonHg-7" value="" style="endArrow=classic;startArrow=classic;html=1;rounded=0;exitX=0.5;exitY=1;exitDx=0;exitDy=0;entryX=0;entryY=0;entryDx=0;entryDy=0;entryPerimeter=0;" edge="1" parent="1" source="8K5tmWM-PZiiqU3aonHg-3" target="PZESjGKclU4C-1-lUbuo-14">
          <mxGeometry width="50" height="50" relative="1" as="geometry">
            <mxPoint x="390" y="90" as="sourcePoint" />
            <mxPoint x="590" y="180" as="targetPoint" />
          </mxGeometry>
        </mxCell>
        <mxCell id="8K5tmWM-PZiiqU3aonHg-8" value="" style="endArrow=classic;startArrow=classic;html=1;rounded=0;exitX=0.5;exitY=1;exitDx=0;exitDy=0;entryX=0;entryY=0;entryDx=50;entryDy=0;entryPerimeter=0;" edge="1" parent="1" source="8K5tmWM-PZiiqU3aonHg-1" target="PZESjGKclU4C-1-lUbuo-14">
          <mxGeometry width="50" height="50" relative="1" as="geometry">
            <mxPoint x="400" y="100" as="sourcePoint" />
            <mxPoint x="600" y="190" as="targetPoint" />
          </mxGeometry>
        </mxCell>
        <mxCell id="8K5tmWM-PZiiqU3aonHg-9" value="" style="endArrow=classic;startArrow=classic;html=1;rounded=0;exitX=0.5;exitY=1;exitDx=0;exitDy=0;entryX=0;entryY=0;entryDx=100;entryDy=0;entryPerimeter=0;" edge="1" parent="1" source="8K5tmWM-PZiiqU3aonHg-2" target="PZESjGKclU4C-1-lUbuo-14">
          <mxGeometry width="50" height="50" relative="1" as="geometry">
            <mxPoint x="410" y="110" as="sourcePoint" />
            <mxPoint x="610" y="200" as="targetPoint" />
          </mxGeometry>
        </mxCell>
        <mxCell id="8K5tmWM-PZiiqU3aonHg-10" value="" style="endArrow=classic;startArrow=classic;html=1;rounded=0;exitX=0.5;exitY=1;exitDx=0;exitDy=0;entryX=0;entryY=0;entryDx=120;entryDy=50;entryPerimeter=0;" edge="1" parent="1" source="8K5tmWM-PZiiqU3aonHg-5" target="PZESjGKclU4C-1-lUbuo-14">
          <mxGeometry width="50" height="50" relative="1" as="geometry">
            <mxPoint x="420" y="120" as="sourcePoint" />
            <mxPoint x="620" y="210" as="targetPoint" />
          </mxGeometry>
        </mxCell>
        <mxCell id="8K5tmWM-PZiiqU3aonHg-11" value="" style="endArrow=none;dashed=1;html=1;dashPattern=1 3;strokeWidth=2;rounded=0;" edge="1" parent="1">
          <mxGeometry width="50" height="50" relative="1" as="geometry">
            <mxPoint x="246" y="600" as="sourcePoint" />
            <mxPoint x="246" y="200" as="targetPoint" />
          </mxGeometry>
        </mxCell>
        <mxCell id="8K5tmWM-PZiiqU3aonHg-12" value="" style="endArrow=none;dashed=1;html=1;dashPattern=1 3;strokeWidth=2;rounded=0;" edge="1" parent="1">
          <mxGeometry width="50" height="50" relative="1" as="geometry">
            <mxPoint x="480" y="600" as="sourcePoint" />
            <mxPoint x="480" y="200" as="targetPoint" />
          </mxGeometry>
        </mxCell>
        <mxCell id="8K5tmWM-PZiiqU3aonHg-13" value="" style="endArrow=none;dashed=1;html=1;dashPattern=1 3;strokeWidth=2;rounded=0;" edge="1" parent="1">
          <mxGeometry width="50" height="50" relative="1" as="geometry">
            <mxPoint x="800" y="600" as="sourcePoint" />
            <mxPoint x="800" y="200" as="targetPoint" />
          </mxGeometry>
        </mxCell>
        <mxCell id="8K5tmWM-PZiiqU3aonHg-14" value="" style="endArrow=none;dashed=1;html=1;dashPattern=1 3;strokeWidth=2;rounded=0;" edge="1" parent="1">
          <mxGeometry width="50" height="50" relative="1" as="geometry">
            <mxPoint x="590" y="660" as="sourcePoint" />
            <mxPoint x="770" y="660" as="targetPoint" />
          </mxGeometry>
        </mxCell>
      </root>
    </mxGraphModel>
  </diagram>
</mxfile>
